<svg id="Layer_1" data-name="Layer 1" xmlns="http://www.w3.org/2000/svg" viewBox="0 0 74 88"><title>icon_globe</title><path d="M22.67,1.08C9.36,8.85.67,23.19.67,37.83A40.34,40.34,0,0,0,6.2,58C13.77,71.24,27.61,78.2,41.67,78.8v6h-10a2,2,0,1,0,0,4h24a2,2,0,1,0,0-4h-10V78.77a40.81,40.81,0,0,0,18-5.22,2,2,0,0,0-2-3.47,37.54,37.54,0,0,1-18,4.75c-13.48,0-26.85-6.33-34-18.84a36.15,36.15,0,0,1-5-18.16c0-13,7.89-26.22,20-33.28a2.06,2.06,0,0,0,1-2.33,2.09,2.09,0,0,0-3-1.14ZM42.76,6c-.77,0-1.54,0-2.31.06A32.9,32.9,0,1,0,42.76,6Z" transform="translate(-0.67 -0.83)"/></svg>