<svg id="Layer_1" data-name="Layer 1" xmlns="http://www.w3.org/2000/svg" viewBox="0 0 92 53.09"><defs><style>.cls-1{fill:#fff;}</style></defs><title>icon_plane_white</title><path class="cls-1" d="M44.5.5c-1.94,0-4,3-4,5.94V16.81A18.92,18.92,0,0,0,28,30.28L4.5,34.18a4.33,4.33,0,0,0-4,4v2a4.28,4.28,0,0,0,4,4l5.47-.9A5.86,5.86,0,0,0,8.5,47.15a6,6,0,0,0,12,0,5.87,5.87,0,0,0-3-5.11l10.81-1.8a19.07,19.07,0,0,0,36.38,0L75.5,42a5.87,5.87,0,0,0-3,5.11,6,6,0,0,0,12,0A5.86,5.86,0,0,0,83,43.28l5.47.9a4.28,4.28,0,0,0,4-4v-2a4.33,4.33,0,0,0-4-4L65,30.28A18.92,18.92,0,0,0,52.5,16.81V6.44c0-3-2.06-5.94-4-5.94Zm2,21.79c3.44,0,6.79,1.15,10.91,3.19a2,2,0,1,1-1.78,3.58h0c-3.88-1.92-6.54-2.79-9.09-2.79s-5.21.86-9.09,2.79a2,2,0,0,1-2.7-.85v0a2,2,0,0,1,.86-2.68h0C39.71,23.44,43.05,22.29,46.5,22.29Z" transform="translate(-0.5 -0.5)"/></svg>