<svg id="Layer_1" data-name="Layer 1" xmlns="http://www.w3.org/2000/svg" viewBox="0 0 92 53"><title>icon_plane</title><path d="M44.67,1c-1.94,0-4,3-4,5.94V17.31A18.92,18.92,0,0,0,28.2,30.78L4.67,34.68a4.33,4.33,0,0,0-4,4v2a4.28,4.28,0,0,0,4,4l5.47-.9a5.86,5.86,0,0,0-1.47,3.87,6,6,0,0,0,12,0,5.87,5.87,0,0,0-3-5.11l10.81-1.8a19.07,19.07,0,0,0,36.38,0l10.81,1.8a5.87,5.87,0,0,0-3,5.11,6,6,0,0,0,12,0,5.86,5.86,0,0,0-1.47-3.87l5.47.9a4.28,4.28,0,0,0,4-4v-2a4.33,4.33,0,0,0-4-4l-23.53-3.9A18.92,18.92,0,0,0,52.67,17.31V6.94c0-3-2.06-5.94-4-5.94Zm2,21.79c3.44,0,6.79,1.15,10.91,3.19a2,2,0,0,1,.9,2.68,2,2,0,0,1-2.7.89h0c-3.88-1.92-6.54-2.79-9.09-2.79s-5.21.86-9.09,2.79a2,2,0,0,1-2.71-.87A2,2,0,0,1,35.75,26h0C39.88,23.94,43.22,22.79,46.67,22.79Z" transform="translate(-0.67 -1)"/></svg>