<svg id="Layer_1" data-name="Layer 1" xmlns="http://www.w3.org/2000/svg" viewBox="0 0 40.06 74.95"><defs><style>.cls-1{fill:#010101;}</style></defs><title>icon-facebook</title><path class="cls-1" d="M40,3.62a1.59,1.59,0,0,0-1-1.24A36.37,36.37,0,0,0,26.7,0,21.78,21.78,0,0,0,15.6,2.84h0a13.92,13.92,0,0,0-4.32,3.88,18.14,18.14,0,0,0-3,7.46,44.15,44.15,0,0,0-.62,6.38c-.94,0-2,0-3,0H1.61A1.59,1.59,0,0,0,0,22.16L.06,32.72a1.65,1.65,0,0,0,1.6,1.65H2.77c1.56,0,4.46-.07,6.69,0,.33,7.25.41,18.13.41,26.56,0,3.56,0,6.65,0,8.89,0,1.11,0,2,0,2.61s0,.94,0,.94a1.59,1.59,0,0,0,1.6,1.6l14.13-.07a1.59,1.59,0,0,0,1.58-1.61S27,64.59,27,55.21c-.07-8.06-.16-16.62-.2-20.6l2.88,0h4.49A1.59,1.59,0,0,0,35.73,33l0-9.78A1.93,1.93,0,0,0,35.29,22a1.76,1.76,0,0,0-1.13-.6h-.53c-.34,0-.82.14-1.4.14-1.77,0-4.45.06-6.58,0a18,18,0,0,1,.3-2.83,8.31,8.31,0,0,1,.62-2,4.33,4.33,0,0,1,.62-1,3,3,0,0,1,1.18-.86,4.76,4.76,0,0,1,1.83-.31,16.15,16.15,0,0,1,5.54,1.3l.05,0,.05,0,.1,0,.16,0h.31l.15,0,.15,0,.14,0,.14-.06.13-.07.13-.09.11-.1.11-.11.1-.12.09-.13.07-.14,0-.09,0-.06,0,0c.32-1.06.87-2.83,1.35-4.7.24-.94.46-1.9.62-2.83a15.86,15.86,0,0,0,.27-2.65A7,7,0,0,0,40,3.62ZM26.65,12.21a6.26,6.26,0,0,0-2,1.67,9.3,9.3,0,0,0-1.69,3.77,22.3,22.3,0,0,0-.48,5c0,.19,0,.38,0,.58A1.4,1.4,0,0,0,24,24.52c2.26.07,6-.15,8.23-.15h.34v6.81c-.81,0-1.85.1-2.92.1-1.69,0-3.45.07-4.56.13a1.62,1.62,0,0,0-1.51,1.64c0,2.72.14,12.79.22,22.17,0,4.69.08,9.21.11,12.56,0,1.62,0,3,0,3.93L13,71.76c0-2.11,0-6.1,0-10.89C13,51.82,13,40,12.56,32.64A1.58,1.58,0,0,0,11,31.14C8.88,31.06,5.3,31,3.23,31l0-7.29H4.71c1.55,0,3.34,0,4.6-.09a1.59,1.59,0,0,0,1.5-1.54A36.93,36.93,0,0,1,12,12.5a13.13,13.13,0,0,1,1.89-3.92,10.75,10.75,0,0,1,3.35-3h0a18.6,18.6,0,0,1,9.5-2.4A32.28,32.28,0,0,1,36.87,5a14.66,14.66,0,0,1-.21,1.77c-.21,1.23-.56,2.63-.91,3.91-.16.59-.32,1.14-.48,1.66a16.73,16.73,0,0,0-5.07-.94A7.61,7.61,0,0,0,26.65,12.21Z"/></svg>