<svg id="Layer_1" data-name="Layer 1" xmlns="http://www.w3.org/2000/svg" viewBox="0 0 90 90"><defs><style>.cls-1{fill:#010101;}</style></defs><title>icon-search</title><g id="a"><path class="cls-1" d="M90,85a4.85,4.85,0,0,0-1.5-3.55L63.05,56a32.53,32.53,0,0,0,6.1-13.2h0A37.07,37.07,0,0,0,70,35,33.8,33.8,0,0,0,59.7,10.2,33.65,33.65,0,0,0,35,0,33.94,33.94,0,0,0,10.2,10.2h0A33.94,33.94,0,0,0,0,35,33.65,33.65,0,0,0,10.2,59.7,33.8,33.8,0,0,0,35,70a33.51,33.51,0,0,0,21-6.95L81.45,88.5A4.85,4.85,0,0,0,85,90a5.13,5.13,0,0,0,5-5M59.4,40.7v0a23.75,23.75,0,0,1-6.75,12h0A23.92,23.92,0,0,1,35,60a24.19,24.19,0,0,1-17.75-7.35A24,24,0,0,1,10,35a24.26,24.26,0,0,1,7.25-17.7l0,0A24.26,24.26,0,0,1,35,10a24,24,0,0,1,17.65,7.25A24.19,24.19,0,0,1,60,35,26.88,26.88,0,0,1,59.4,40.7Z"/></g></svg>