<svg id="Layer_1" data-name="Layer 1" xmlns="http://www.w3.org/2000/svg" viewBox="0 0 44.05 36.86"><defs><style>.cls-1{fill:#010101;}</style></defs><title>icon-twitter</title><path class="cls-1" d="M42.87,4.22A2.83,2.83,0,0,0,38.7,1a13,13,0,0,1-2.79,1.23A10.71,10.71,0,0,0,18.79,9.26,19.62,19.62,0,0,1,7.7,2.49a2.83,2.83,0,0,0-2.2-1H5.29a2.84,2.84,0,0,0-2.23,1.4A10.69,10.69,0,0,0,1.61,8.23a10.85,10.85,0,0,0,.65,3.69,2.85,2.85,0,0,0-.71,1.88,10.86,10.86,0,0,0,2.83,7.33,2.81,2.81,0,0,0,.07,1.49,10.68,10.68,0,0,0,3.17,4.82,13.1,13.1,0,0,1-2.9.32,13.78,13.78,0,0,1-1.55-.09l-.33,0A2.84,2.84,0,0,0,1.3,32.87a25.18,25.18,0,0,0,13.6,4C30.56,36.86,40,24.26,40.14,12a18.77,18.77,0,0,0,3.34-3.73,2.81,2.81,0,0,0,.57-1.71A2.84,2.84,0,0,0,42.87,4.22ZM37.28,10.6c0,.34,0,.68,0,1C37.3,22,29.38,34,14.9,34A22.29,22.29,0,0,1,2.83,30.48a17.07,17.07,0,0,0,1.88.11,15.8,15.8,0,0,0,9.78-3.37,7.88,7.88,0,0,1-7.36-5.47,7.83,7.83,0,0,0,3.55-.13A7.88,7.88,0,0,1,4.37,13.9v-.1a7.86,7.86,0,0,0,3.57,1A7.88,7.88,0,0,1,5.5,4.27a22.34,22.34,0,0,0,16.23,8.22A7.88,7.88,0,0,1,35.15,5.31a15.71,15.71,0,0,0,5-1.91,7.91,7.91,0,0,1-3.46,4.35A15.6,15.6,0,0,0,41.2,6.52,15.82,15.82,0,0,1,37.28,10.6Z"/></svg>