<svg id="Layer_1" data-name="Layer 1" xmlns="http://www.w3.org/2000/svg" viewBox="0 0 88.22 88.22"><defs><style>.cls-1{fill:#010101;}</style></defs><title>icon-instagram</title><path class="cls-1" d="M73.53.25H14.28A14.5,14.5,0,0,0-.21,14.73V74A14.51,14.51,0,0,0,14.28,88.47H73.53A14.5,14.5,0,0,0,88,74V14.73A14.5,14.5,0,0,0,73.53.25ZM14.28,7.37H73.53a7.37,7.37,0,0,1,7.36,7.36v8.88H60.32a26.34,26.34,0,0,0-32.82,0H6.92V14.73A7.37,7.37,0,0,1,14.28,7.37ZM43.91,25A19.35,19.35,0,1,1,24.55,44.36,19.38,19.38,0,0,1,43.91,25ZM73.53,81.35H14.28A7.37,7.37,0,0,1,6.92,74V30.74H21.24a26.48,26.48,0,1,0,45.33,0H80.9V74A7.37,7.37,0,0,1,73.53,81.35Z" transform="translate(0.21 -0.25)"/><path class="cls-1" d="M69.05,19.58H74a.81.81,0,0,0,.81-.81V13.86a.81.81,0,0,0-.81-.81H69.05a.81.81,0,0,0-.81.81v4.92A.81.81,0,0,0,69.05,19.58Z" transform="translate(0.21 -0.25)"/><path class="cls-1" d="M43.91,36.31a8.05,8.05,0,0,1,8,8,3.56,3.56,0,1,0,7.12,0A15.19,15.19,0,0,0,43.91,29.19a3.56,3.56,0,1,0,0,7.12Z" transform="translate(0.21 -0.25)"/></svg>